<svg width="208" height="280" viewBox="0 0 208 280" fill="none" xmlns="http://www.w3.org/2000/svg">
<path d="M101.539 175.941C104.487 175.492 106.513 172.737 106.064 169.789C105.614 166.841 102.86 164.815 99.9118 165.264C96.9635 165.713 94.9376 168.468 95.3869 171.416C95.8362 174.364 98.5905 176.39 101.539 175.941Z" fill="#FF6584"/>
<path d="M134.393 226.65C137.341 226.201 139.367 223.446 138.918 220.498C138.468 217.55 135.714 215.524 132.766 215.973C129.818 216.423 127.792 219.177 128.241 222.125C128.69 225.073 131.445 227.099 134.393 226.65Z" fill="#065FEF"/>
<path d="M36.5971 122.449C42.2405 121.949 47.9221 122.794 53.176 124.914C58.4299 127.034 63.1066 130.369 66.8228 134.646C67.8666 135.859 69.1869 137.167 68.8576 138.907C68.7516 139.571 68.4236 140.18 67.927 140.633C67.4304 141.087 66.7947 141.358 66.1238 141.404C65.2707 141.352 64.4584 141.02 63.8122 140.461C63.166 139.902 62.7217 139.145 62.548 138.309C62.3742 137.472 62.4805 136.601 62.8506 135.831C63.2207 135.06 63.834 134.433 64.5959 134.046C68.2207 131.801 72.5216 133.761 75.9904 135.319C83.8944 138.871 92.4495 141.868 101.249 141.068C109.391 140.329 117.56 135.848 120.981 128.168C121.58 126.825 119.458 125.991 118.863 127.327C115.47 134.944 106.853 138.807 98.8677 138.926C94.0941 138.901 89.3602 138.059 84.8709 136.436C82.5509 135.648 80.2772 134.729 78.036 133.74C75.8852 132.68 73.6445 131.812 71.3403 131.148C67.525 130.22 62.7892 131.06 60.7986 134.838C58.9415 138.363 61.5536 143.362 65.6029 143.656C66.4872 143.694 67.3672 143.513 68.164 143.127C68.9609 142.742 69.6496 142.165 70.1685 141.448C70.6875 140.731 71.0204 139.896 71.1374 139.019C71.2543 138.141 71.1518 137.249 70.8389 136.421C70.1641 134.615 68.4811 133.003 67.1613 131.644C63.1937 127.546 58.3572 124.39 53.0081 122.408C47.659 120.427 41.9336 119.671 36.2536 120.196C34.7936 120.345 35.1408 122.597 36.5971 122.449Z" fill="#CCCCCC"/>
<path d="M155.974 22.7902C151.486 23.1877 146.967 22.5157 142.788 20.8295C138.61 19.1433 134.89 16.4908 131.934 13.0894C131.104 12.124 130.054 11.0841 130.316 9.70013C130.4 9.17195 130.661 8.68797 131.056 8.32729C131.451 7.96662 131.957 7.7506 132.49 7.71453C133.169 7.75585 133.815 8.01922 134.329 8.46407C134.843 8.90891 135.196 9.51051 135.334 10.1761C135.473 10.8416 135.388 11.5341 135.094 12.1468C134.799 12.7595 134.311 13.2584 133.706 13.5664C130.823 15.3516 127.402 13.793 124.643 12.5535C118.356 9.72913 111.552 7.34546 104.553 7.98099C98.0776 8.56905 91.5805 12.1333 88.8596 18.2413C88.3835 19.3099 90.0709 19.9732 90.5446 18.9098C93.243 12.8522 100.096 9.77998 106.447 9.68483C110.244 9.7049 114.009 10.3748 117.58 11.6654C119.425 12.2922 121.233 13.0233 123.016 13.8098C124.726 14.653 126.509 15.3428 128.341 15.871C131.376 16.6089 135.142 15.9412 136.726 12.9363C137.051 12.2317 137.207 11.4608 137.182 10.6851C137.156 9.90945 136.95 9.15051 136.578 8.46899C136.207 7.78746 135.681 7.20227 135.043 6.76019C134.405 6.3181 133.673 6.03138 132.905 5.92297C132.201 5.89242 131.501 6.03688 130.867 6.34339C130.234 6.64989 129.686 7.10888 129.273 7.67919C128.86 8.24951 128.596 8.91332 128.503 9.61113C128.41 10.3089 128.491 11.0189 128.74 11.6775C129.459 13.122 130.452 14.4126 131.665 15.4769C134.821 18.7364 138.667 21.2466 142.922 22.8223C147.176 24.3981 151.73 24.9994 156.247 24.582C157.409 24.4634 157.133 22.6719 155.974 22.7902Z" fill="#CCCCCC"/>
<path d="M168.691 78.9343L163.353 79.7478L166.026 97.2882L171.364 96.4747L168.691 78.9343Z" fill="#CCCCCC"/>
<path d="M80.5114 79.847L83.6561 75.5716L69.6083 65.2391L66.4637 69.5145L80.5114 79.847Z" fill="#FFCA00"/>
<path d="M107.719 268.549L111.995 271.694L122.327 257.646L118.052 254.501L107.719 268.549Z" fill="#FF6584"/>
</svg>
