<svg width="178" height="281" viewBox="0 0 178 281" fill="none" xmlns="http://www.w3.org/2000/svg">
<path d="M82.4828 176.323C85.4311 175.874 87.4569 173.12 87.0076 170.172C86.5583 167.223 83.804 165.197 80.8557 165.647C77.9074 166.096 75.8816 168.85 76.3309 171.799C76.7802 174.747 79.5345 176.773 82.4828 176.323Z" fill="#FF6584"/>
<path d="M115.337 227.033C118.285 226.583 120.311 223.829 119.862 220.881C119.412 217.933 116.658 215.907 113.71 216.356C110.761 216.805 108.736 219.56 109.185 222.508C109.634 225.456 112.389 227.482 115.337 227.033Z" fill="#065FEF"/>
<path d="M17.541 122.831C23.1845 122.332 28.8661 123.176 34.12 125.297C39.3739 127.417 44.0506 130.752 47.7667 135.028C48.8105 136.242 50.1309 137.55 49.8015 139.29C49.6956 139.954 49.3675 140.562 48.871 141.016C48.3744 141.469 47.7387 141.741 47.0677 141.786C46.2147 141.734 45.4024 141.403 44.7561 140.844C44.1099 140.284 43.6657 139.528 43.4919 138.691C43.3182 137.854 43.4245 136.984 43.7946 136.213C44.1647 135.443 44.778 134.816 45.5398 134.429C49.1647 132.184 53.4656 134.144 56.9344 135.702C64.8383 139.253 73.3934 142.25 82.1933 141.451C90.3352 140.712 98.504 136.23 101.925 128.551C102.524 127.207 100.402 126.373 99.8065 127.71C96.4137 135.326 87.7972 139.189 79.8116 139.309C75.0381 139.284 70.3042 138.441 65.8149 136.819C63.4948 136.031 61.2212 135.111 58.98 134.123C56.8291 133.062 54.5885 132.195 52.2843 131.531C48.4689 130.603 43.7331 131.443 41.7425 135.221C39.8855 138.746 42.4975 143.744 46.5468 144.039C47.4311 144.077 48.3112 143.895 49.108 143.51C49.9048 143.125 50.5936 142.548 51.1125 141.831C51.6314 141.114 51.9643 140.279 52.0813 139.402C52.1983 138.524 52.0958 137.631 51.7829 136.803C51.1081 134.997 49.425 133.386 48.1053 132.026C44.1376 127.928 39.3011 124.772 33.9521 122.791C28.603 120.81 22.8776 120.054 17.1976 120.579C15.7375 120.728 16.0848 122.98 17.541 122.831Z" fill="#CCCCCC"/>
<path d="M136.918 23.1729C132.43 23.5703 127.911 22.8984 123.732 21.2122C119.554 19.5259 115.834 16.8734 112.878 13.4721C112.048 12.5067 110.998 11.4667 111.26 10.0828C111.344 9.55461 111.605 9.07062 112 8.70995C112.395 8.34928 112.901 8.13326 113.434 8.09719C114.113 8.13851 114.759 8.40188 115.273 8.84673C115.787 9.29157 116.14 9.89317 116.278 10.5587C116.417 11.2243 116.332 11.9168 116.038 12.5295C115.743 13.1422 115.255 13.641 114.649 13.9491C111.766 15.7342 108.346 14.1756 105.587 12.9361C99.3005 10.1118 92.4962 7.72812 85.4972 8.36365C79.0215 8.95171 72.5245 12.516 69.8036 18.624C69.3275 19.6926 71.0149 20.3559 71.4885 19.2925C74.187 13.2349 81.0401 10.1626 87.3914 10.0675C91.188 10.0876 94.9532 10.7574 98.5237 12.0481C100.369 12.6749 102.177 13.4059 103.96 14.1924C105.67 15.0357 107.453 15.7255 109.285 16.2537C112.32 16.9916 116.086 16.3238 117.67 13.3189C117.995 12.6144 118.151 11.8435 118.126 11.0678C118.1 10.2921 117.893 9.53317 117.522 8.85165C117.151 8.17012 116.625 7.58493 115.987 7.14285C115.349 6.70076 114.617 6.41404 113.849 6.30563C113.145 6.27508 112.445 6.41954 111.811 6.72605C111.178 7.03255 110.63 7.49154 110.217 8.06185C109.804 8.63217 109.54 9.29598 109.447 9.99379C109.354 10.6916 109.435 11.4016 109.684 12.0601C110.403 13.5047 111.396 14.7952 112.609 15.8595C115.765 19.1191 119.611 21.6292 123.866 23.205C128.12 24.7808 132.674 25.3821 137.191 24.9646C138.353 24.846 138.076 23.0546 136.918 23.1729Z" fill="#CCCCCC"/>
<path d="M149.635 79.317L144.297 80.1305L146.97 97.6708L152.308 96.8573L149.635 79.317Z" fill="#CCCCCC"/>
<path d="M61.4554 80.2297L64.6001 75.9543L50.5523 65.6218L47.4077 69.8972L61.4554 80.2297Z" fill="#FFCA00"/>
<path d="M88.6632 268.932L92.9386 272.076L103.271 258.028L98.9956 254.884L88.6632 268.932Z" fill="#FF6584"/>
</svg>
