<svg width="60" height="61" viewBox="0 0 60 61" fill="none" xmlns="http://www.w3.org/2000/svg">
<g id="c-net-2 1" clip-path="url(#clip0_1_1701)">
<path id="Vector" d="M30.0005 60.5C46.569 60.5 60.0005 47.0685 60.0005 30.5C60.0005 13.9315 46.569 0.5 30.0005 0.5C13.4319 0.5 0.000488281 13.9315 0.000488281 30.5C0.000488281 47.0685 13.4319 60.5 30.0005 60.5Z" fill="#CF4037"/>
<g id="Group">
<path id="Vector_2" d="M18.6787 14.3516H20.7676V48.413H18.6787V14.3516Z" fill="white"/>
<path id="Vector_3" d="M18.6787 14.3516H20.7676V48.413H18.6787V14.3516Z" fill="white"/>
</g>
<path id="Vector_4" d="M10.1079 26.7559C10.1427 24.5907 13.8658 24.5266 13.8658 26.6569L13.9005 28.5011H16.7423V26.796C16.9229 21.095 7.15377 21.099 7.22598 26.6569V36.4715C7.15377 42.028 16.9322 42.1724 16.7517 36.4715V34.4147H13.8658V36.6159C13.8658 38.7462 10.1494 38.7823 10.1119 36.6159V26.6582L10.1079 26.7559ZM26.3576 24.5373C26.3576 24.5373 26.8538 23.8071 28.1523 23.0849C29.8052 22.1675 31.4207 23.0836 31.1827 22.9766C32.4825 23.5543 32.976 24.9478 33.0683 26.5085V38.1311H34.8991V40.2601H30.1917L30.1904 26.368C30.1904 24.346 26.7749 24.4102 26.7401 26.467L26.7441 26.368V40.2601H22.5235V38.1257L23.8582 38.1284V25.115L22.2694 25.1056V22.9766H26.3469L26.3576 24.5373ZM47.6704 36.4247C47.7627 37.9853 48.2562 39.3788 49.556 39.9565C49.3086 39.8468 50.1913 40.2855 51.0899 40.2708C51.562 40.2628 53.8622 40.2668 53.8622 40.2668L53.8635 38.1284C53.8635 38.1284 52.7001 38.115 52.0849 38.1217C51.3039 38.1297 50.6259 37.758 50.5724 36.6533L50.5764 25.123L50.5711 25.1043H53.35L53.3487 23.0114H50.5657L50.5764 22.9766V18.502H47.6718L47.6704 36.4247ZM42.4402 34.4147V36.6159C42.4402 38.7462 38.7251 38.7823 38.6877 36.6159V32.0342L44.7898 32.0396C44.9303 32.0396 45.065 31.9838 45.1643 31.8845C45.2636 31.7852 45.3194 31.6505 45.3194 31.51L45.3181 26.7973C45.4986 21.0963 35.7295 21.1004 35.8017 26.6582V36.4728C35.7295 42.0293 45.508 42.1738 45.3274 36.4728V34.4147H42.4402ZM38.689 26.6422C38.7372 24.5105 42.4415 24.5266 42.4415 26.6569L42.4322 29.8678H38.689V26.6422Z" fill="white"/>
</g>
<defs>
<clipPath id="clip0_1_1701">
<rect width="60" height="60" fill="white" transform="translate(0 0.5)"/>
</clipPath>
</defs>
</svg>
