<svg width="58" height="68" viewBox="0 0 58 68" fill="none" xmlns="http://www.w3.org/2000/svg">
<path d="M23.0061 15.0085C23.9307 14.6222 24.9934 15.0585 25.3798 15.9831C25.7661 16.9077 25.3298 17.9704 24.4052 18.3568C23.4806 18.7431 22.4179 18.3068 22.0315 17.3822C21.6452 16.4576 22.0815 15.3949 23.0061 15.0085Z" fill="#065FEF"/>
<path d="M22.4698 65.0515C23.1302 64.7755 23.8893 65.0872 24.1653 65.7476C24.4412 66.408 24.1295 67.1671 23.4691 67.4431C22.8087 67.7191 22.0496 67.4074 21.7736 66.747C21.4977 66.0865 21.8094 65.3274 22.4698 65.0515Z" fill="#FF6584"/>
<path d="M16.4635 27.4517C17.1239 27.1757 17.883 27.4874 18.159 28.1478C18.4349 28.8082 18.1233 29.5673 17.4628 29.8433C16.8024 30.1192 16.0433 29.8076 15.7674 29.1472C15.4914 28.4867 15.8031 27.7276 16.4635 27.4517Z" fill="#FFCA00"/>
<path d="M17.7039 7.2409C18.3643 6.96494 19.1234 7.27661 19.3994 7.93704C19.6753 8.59746 19.3637 9.35655 18.7032 9.63251C18.0428 9.90847 17.2837 9.5968 17.0078 8.93638C16.7318 8.27595 17.0435 7.51686 17.7039 7.2409Z" fill="#E6E6E6"/>
<path d="M24.969 52.2086C25.6295 51.9326 26.3886 52.2443 26.6645 52.9047C26.9405 53.5651 26.6288 54.3242 25.9684 54.6002C25.308 54.8762 24.5489 54.5645 24.2729 53.9041C23.997 53.2436 24.3086 52.4846 24.969 52.2086Z" fill="#CCCCCC"/>
<path d="M41.0702 15.2663C40.0664 15.6689 39.1724 16.3036 38.4613 17.1184C37.7502 17.9333 37.2424 18.905 36.9794 19.954C36.9066 20.2508 36.7948 20.5874 37.0012 20.8551C37.0766 20.959 37.1851 21.0342 37.3088 21.0685C37.4325 21.1028 37.5641 21.0941 37.6822 21.0438C37.8229 20.9613 37.9326 20.8347 37.9943 20.6837C38.0559 20.5327 38.0662 20.3656 38.0235 20.2081C37.9807 20.0507 37.8874 19.9116 37.7578 19.8125C37.6283 19.7134 37.4697 19.6596 37.3066 19.6595C36.4956 19.5907 35.9329 20.2958 35.4772 20.8608C34.4387 22.1482 33.2415 23.3975 31.6746 24.0218C30.2249 24.5995 28.4473 24.5425 27.2015 23.531C26.9835 23.354 27.2726 23.0288 27.4894 23.2049C28.725 24.2081 30.5254 24.121 31.8949 23.4514C32.7052 23.0347 33.4382 22.4823 34.0621 21.8182C34.3889 21.4836 34.6965 21.1307 34.9925 20.7687C35.267 20.4024 35.5734 20.0612 35.9082 19.7491C36.4775 19.2615 37.3561 18.9952 38.0213 19.4663C38.1676 19.5817 38.2847 19.7297 38.3635 19.8984C38.4423 20.0672 38.4805 20.2521 38.4751 20.4383C38.4697 20.6245 38.4208 20.8068 38.3323 20.9707C38.2438 21.1346 38.1182 21.2756 37.9655 21.3822C37.8183 21.4652 37.6528 21.5103 37.4839 21.5136C37.315 21.5168 37.1479 21.4781 36.9976 21.4009C36.8473 21.3237 36.7185 21.2104 36.6228 21.0712C36.5271 20.9319 36.4674 20.7711 36.4491 20.6032C36.446 20.2159 36.5185 19.8318 36.6624 19.4723C36.9836 18.4319 37.5341 17.4769 38.2734 16.6775C39.0126 15.878 39.9218 15.2547 40.9339 14.8532C41.1953 14.7525 41.3309 15.1658 41.0702 15.2663Z" fill="#CCCCCC"/>
<path d="M27.8946 45.3079C28.9677 45.4423 30.0573 45.3205 31.0742 44.9524C32.0911 44.5843 33.0064 43.9805 33.7448 43.1905C33.9524 42.9661 34.2133 42.7259 34.1625 42.3917C34.1469 42.2642 34.0885 42.1459 33.9969 42.0559C33.9053 41.966 33.786 41.9098 33.6583 41.8965C33.4952 41.9005 33.3379 41.9581 33.2108 42.0603C33.0837 42.1625 32.9937 42.3037 32.9547 42.4621C32.9158 42.6205 32.9301 42.7874 32.9953 42.9369C33.0606 43.0864 33.1732 43.2103 33.3159 43.2895C33.9918 43.7427 34.8258 43.3987 35.4983 43.1254C37.0306 42.5027 38.6833 41.9902 40.3564 42.2035C41.9045 42.4009 43.4317 43.3123 44.0311 44.801C44.136 45.0614 43.7256 45.2058 43.6212 44.9466C43.0267 43.4703 41.4098 42.6738 39.8873 42.5957C38.9765 42.5675 38.0677 42.6954 37.2001 42.9739C36.7521 43.1081 36.312 43.2677 35.8776 43.4409C35.46 43.6282 35.0265 43.7782 34.5824 43.8889C33.8482 44.0394 32.9506 43.8465 32.597 43.112C32.5251 42.9402 32.4943 42.754 32.5072 42.5682C32.5201 42.3823 32.5763 42.2021 32.6712 42.0419C32.7662 41.8816 32.8974 41.7459 33.0542 41.6454C33.2111 41.5449 33.3893 41.4825 33.5745 41.4632C33.7435 41.462 33.9101 41.5027 34.0594 41.5818C34.2088 41.6608 34.3361 41.7756 34.4302 41.916C34.5242 42.0564 34.5819 42.2179 34.5982 42.3861C34.6144 42.5543 34.5887 42.7238 34.5233 42.8796C34.3383 43.2198 34.0888 43.5207 33.7886 43.7654C33.0034 44.5197 32.059 45.0883 31.0249 45.4292C29.9908 45.7701 28.8934 45.8747 27.8135 45.7353C27.536 45.6967 27.6179 45.2695 27.8946 45.3079Z" fill="#CCCCCC"/>
<path d="M15.769 42.8904L16.2528 41.7121L20.1244 43.3017L19.6406 44.48L15.769 42.8904Z" fill="#B3B3B3"/>
</svg>
