<svg width="44" height="69" viewBox="0 0 44 69" fill="none" xmlns="http://www.w3.org/2000/svg">
<path d="M20.4359 43.1955C21.1435 43.0877 21.6297 42.4266 21.5219 41.719C21.414 41.0115 20.753 40.5253 20.0454 40.6331C19.3378 40.7409 18.8516 41.4019 18.9594 42.1095C19.0673 42.8171 19.7283 43.3033 20.4359 43.1955Z" fill="#FF6584"/>
<path d="M28.3208 55.3657C29.0284 55.2579 29.5146 54.5968 29.4068 53.8892C29.299 53.1817 28.638 52.6954 27.9304 52.8033C27.2228 52.9111 26.7366 53.5721 26.8444 54.2797C26.9522 54.9873 27.6133 55.4735 28.3208 55.3657Z" fill="#065FEF"/>
<path d="M4.84987 30.3574C6.2043 30.2374 7.56788 30.4402 8.82882 30.949C10.0898 31.4579 11.2122 32.2583 12.104 33.2846C12.3545 33.5759 12.6714 33.8897 12.5924 34.3074C12.567 34.4667 12.4882 34.6128 12.3691 34.7216C12.2499 34.8305 12.0973 34.8956 11.9363 34.9065C11.7315 34.8941 11.5366 34.8146 11.3815 34.6803C11.2264 34.5461 11.1198 34.3646 11.0781 34.1638C11.0364 33.9629 11.0619 33.754 11.1507 33.5691C11.2396 33.3842 11.3867 33.2336 11.5696 33.1407C12.4396 32.602 13.4718 33.0723 14.3043 33.4464C16.2012 34.2986 18.2544 35.0179 20.3664 34.8261C22.3205 34.6487 24.281 33.5731 25.102 31.73C25.2457 31.4076 24.7365 31.2074 24.5936 31.5283C23.7793 33.3562 21.7113 34.2833 19.7948 34.312C18.6492 34.3059 17.513 34.1038 16.4356 33.7143C15.8788 33.5252 15.3331 33.3046 14.7952 33.0673C14.279 32.8128 13.7413 32.6046 13.1883 32.4453C12.2726 32.2226 11.136 32.4241 10.6582 33.3308C10.2125 34.1768 10.8394 35.3765 11.8113 35.4471C12.0235 35.4564 12.2347 35.4128 12.4259 35.3203C12.6172 35.2278 12.7825 35.0893 12.907 34.9172C13.0316 34.7451 13.1115 34.5448 13.1395 34.3342C13.1676 34.1236 13.143 33.9094 13.0679 33.7107C12.906 33.2772 12.502 32.8904 12.1853 32.5642C11.2331 31.5806 10.0723 30.8232 8.78852 30.3477C7.50474 29.8722 6.13065 29.6907 4.76744 29.8167C4.41703 29.8525 4.50037 30.3931 4.84987 30.3574Z" fill="#CCCCCC"/>
<path d="M33.5004 6.43935C32.4232 6.53473 31.3386 6.37347 30.3357 5.96877C29.3329 5.56408 28.4402 4.92747 27.7308 4.11115C27.5316 3.87945 27.2795 3.62987 27.3424 3.29772C27.3626 3.17096 27.4252 3.0548 27.52 2.96824C27.6148 2.88168 27.7362 2.82984 27.8642 2.82118C28.0271 2.83109 28.1821 2.8943 28.3055 3.00107C28.4288 3.10783 28.5136 3.25221 28.5468 3.41194C28.58 3.57167 28.5597 3.73788 28.489 3.88493C28.4184 4.03198 28.3013 4.1517 28.1559 4.22563C27.464 4.65407 26.643 4.28 25.9808 3.98252C24.4721 3.30468 22.8391 2.7326 21.1593 2.88513C19.6052 3.02626 18.0459 3.88169 17.3929 5.3476C17.2786 5.60407 17.6836 5.76326 17.7973 5.50805C18.4449 4.05423 20.0896 3.31689 21.6139 3.29405C22.5251 3.29887 23.4288 3.45963 24.2857 3.76939C24.7286 3.91983 25.1626 4.09527 25.5904 4.28403C26.0009 4.48642 26.4286 4.65197 26.8685 4.77873C27.5968 4.95583 28.5007 4.79557 28.8807 4.07439C28.9588 3.90531 28.9963 3.72029 28.9902 3.53412C28.9841 3.34796 28.9344 3.16581 28.8453 3.00225C28.7562 2.83868 28.6301 2.69824 28.477 2.59214C28.3239 2.48604 28.1481 2.41722 27.9637 2.3912C27.7949 2.38387 27.6269 2.41854 27.4748 2.4921C27.3227 2.56566 27.1912 2.67582 27.0921 2.8127C26.9931 2.94957 26.9295 3.10889 26.9072 3.27636C26.8849 3.44384 26.9045 3.61424 26.9642 3.77228C27.1367 4.11898 27.3751 4.42871 27.6662 4.68414C28.4235 5.46643 29.3467 6.06887 30.3678 6.44705C31.3888 6.82524 32.4817 6.96956 33.5659 6.86937C33.8446 6.8409 33.7784 6.41095 33.5004 6.43935Z" fill="#CCCCCC"/>
<path d="M36.5524 19.9139L35.2712 20.1092L35.9127 24.3188L37.1939 24.1236L36.5524 19.9139Z" fill="#CCCCCC"/>
<path d="M15.3893 20.133L16.144 19.1069L12.7726 16.6271L12.0178 17.6532L15.3893 20.133Z" fill="#FFCA00"/>
<path d="M21.9192 65.4214L22.9453 66.1761L25.4251 62.8047L24.399 62.05L21.9192 65.4214Z" fill="#FF6584"/>
</svg>
