<svg xmlns="http://www.w3.org/2000/svg" width="30" height="31" viewBox="0 0 30 31" fill="none">
  <mask id="mask0_1_1376" style="mask-type:alpha" maskUnits="userSpaceOnUse" x="0" y="0" width="30" height="31">
    <rect x="0.299805" y="0.799805" width="29.4" height="29.4" fill="#065FEF"/>
  </mask>
  <g mask="url(#mask0_1_1376)">
    <rect opacity="0.3" x="6.73096" y="21.5" width="16.5375" height="8.55586" fill="url(#paint0_linear_1_1376)"/>
    <path fill-rule="evenodd" clip-rule="evenodd" d="M14.7123 3.87158H15.2865C15.7622 3.87158 16.1479 4.25721 16.1479 4.73291V12.5423H13.851V4.73291C13.851 4.25721 14.2366 3.87158 14.7123 3.87158ZM13.2768 4.73291C13.2768 3.94008 13.9195 3.29736 14.7123 3.29736H15.2865C16.0794 3.29736 16.7221 3.94008 16.7221 4.73291V12.5423L18.3299 12.5423C18.8056 12.5423 19.1912 12.9279 19.1912 13.4036V16.045V16.6192H18.617H11.3818H10.8076V16.045V13.4036C10.8076 12.9279 11.1932 12.5423 11.6689 12.5423L13.2768 12.5423V4.73291ZM11.3818 13.4036C11.3818 13.245 11.5104 13.1165 11.6689 13.1165H18.3299C18.4884 13.1165 18.617 13.245 18.617 13.4036V16.045H11.3818V13.4036Z" fill="white"/>
    <path fill-rule="evenodd" clip-rule="evenodd" d="M9.64157 24.201C9.89384 24.4532 9.89384 24.8623 9.64157 25.1145C9.38929 25.3668 8.98027 25.3668 8.72799 25.1145C8.47571 24.8623 8.47571 24.4532 8.72799 24.201C8.98027 23.9487 9.38929 23.9487 9.64157 24.201ZM11.2938 25.09C11.4296 25.1718 11.4285 25.3575 11.3163 25.4696L10.0577 26.7283C9.94553 26.8404 9.75982 26.8416 9.678 26.7058C9.40548 26.2533 9.46438 25.657 9.85472 25.2667C10.245 24.8764 10.8413 24.8175 11.2938 25.09ZM13.9504 27.1136L14.0982 26.8229L14.2703 26.9106L14.1209 27.203L14.4506 27.2533L14.4197 27.4466L14.0884 27.3946L14.1388 27.7178L13.9471 27.7438L13.9033 27.4206L13.6044 27.5668L13.5167 27.3946L13.8139 27.2501L13.5833 27.0194L13.7197 26.883L13.9504 27.1136ZM14.7834 26.2806L14.9312 25.9899L15.1033 26.0776L14.9539 26.37L15.2836 26.4203L15.2527 26.6136L14.9214 26.5616L14.9718 26.8848L14.7801 26.9108L14.7363 26.5876L14.4374 26.7338L14.3497 26.5616L14.6469 26.4171L14.4163 26.1864L14.5527 26.05L14.7834 26.2806ZM15.7642 25.1569L15.6164 25.4476L15.3857 25.217L15.2493 25.3534L15.4799 25.5841L15.1827 25.7286L15.2704 25.9008L15.5693 25.7546L15.6131 26.0778L15.8048 26.0518L15.7544 25.7286L16.0857 25.7806L16.1166 25.5873L15.7869 25.537L15.9363 25.2446L15.7642 25.1569ZM20.7817 27.941C20.8198 27.9601 20.8648 27.9323 20.8648 27.8896L20.8648 26.4339L20.8648 25.9461L20.8648 25.9458L20.8648 24.3241C20.8648 24.2765 20.8102 24.2496 20.7724 24.2786L19.5318 25.2297C19.4719 25.2756 19.4719 25.366 19.5318 25.412L20.4063 26.0824L18.9409 26.8152C18.8562 26.8575 18.8562 26.9783 18.9409 27.0206L20.7817 27.941ZM18.5481 24.9631C18.7898 24.9631 18.9858 25.1591 18.9858 25.4008C18.9858 25.6425 18.7898 25.8385 18.5481 25.8385C18.3063 25.8385 18.1104 25.6425 18.1104 25.4008C18.1104 25.1591 18.3063 24.9631 18.5481 24.9631ZM14.5331 30.0536C14.38 29.9004 14.445 29.6394 14.6521 29.576L17.422 28.7281C17.642 28.6607 17.8479 28.8666 17.7806 29.0866L16.9326 31.8566C16.8693 32.0636 16.6082 32.1287 16.4551 31.9755L14.5331 30.0536Z" fill="white"/>
    <path d="M7.70516 16.6167C7.80936 16.2449 8.14835 15.9878 8.53455 15.9878H21.4649C21.8511 15.9878 22.1901 16.2449 22.2943 16.6167L23.2365 19.9795C23.2577 20.0551 23.2685 20.1333 23.2685 20.2119V21.6151C23.2685 22.0908 22.8828 22.4765 22.4071 22.4765H7.59229C7.11659 22.4765 6.73096 22.0908 6.73096 21.6151V20.2119C6.73096 20.1333 6.7417 20.0551 6.7629 19.9795L7.70516 16.6167Z" fill="url(#paint1_linear_1_1376)"/>
  </g>
  <defs>
    <linearGradient id="paint0_linear_1_1376" x1="13.8557" y1="21.5" x2="13.8394" y2="28.8538" gradientUnits="userSpaceOnUse">
      <stop stop-color="white"/>
      <stop offset="0.75873" stop-color="#BAE0F5" stop-opacity="0"/>
    </linearGradient>
    <linearGradient id="paint1_linear_1_1376" x1="14.9997" y1="15.9878" x2="14.9997" y2="22.4765" gradientUnits="userSpaceOnUse">
      <stop stop-color="#F7FAFE"/>
      <stop offset="1" stop-color="#F1F6FE"/>
    </linearGradient>
  </defs>
</svg>