<svg width="208" height="278" viewBox="0 0 208 278" fill="none" xmlns="http://www.w3.org/2000/svg">
<path d="M110.372 53.8738C114.42 52.8528 118.53 55.3072 119.551 59.3558C120.572 63.4043 118.117 67.5139 114.069 68.5348C110.02 69.5557 105.91 67.1013 104.89 63.0528C103.869 59.0043 106.323 54.8947 110.372 53.8738Z" fill="#065FEF"/>
<path d="M63.6558 266.14C66.5476 265.41 69.483 267.164 70.2122 270.055C70.9414 272.947 69.1883 275.883 66.2965 276.612C63.4047 277.341 60.4693 275.588 59.74 272.696C59.0108 269.804 60.7639 266.869 63.6558 266.14Z" fill="#FF6584"/>
<path d="M96.3296 104.195C99.2215 103.465 102.157 105.219 102.886 108.11C103.615 111.002 101.862 113.938 98.9704 114.667C96.0786 115.396 93.1432 113.643 92.4139 110.751C91.6847 107.859 93.4378 104.924 96.3296 104.195Z" fill="#FFCA00"/>
<path d="M80.9589 16.7384C83.8507 16.0092 86.7861 17.7623 87.5153 20.6541C88.2445 23.5459 86.4914 26.4814 83.5996 27.2106C80.7078 27.9398 77.7724 26.1867 77.0431 23.2949C76.3139 20.4031 78.067 17.4676 80.9589 16.7384Z" fill="#E6E6E6"/>
<path d="M81.8867 214.762C84.7785 214.033 87.7139 215.786 88.4431 218.678C89.1723 221.57 87.4192 224.505 84.5274 225.235C81.6356 225.964 78.7002 224.211 77.9709 221.319C77.2417 218.427 78.9948 215.492 81.8867 214.762Z" fill="#CCCCCC"/>
<path d="M162.269 62.1189C159.192 65.4104 156.938 69.3844 155.693 73.7151C154.448 78.0458 154.247 82.6099 155.107 87.0332C155.356 88.2819 155.529 89.7496 156.781 90.3956C157.249 90.6545 157.791 90.747 158.318 90.658C158.845 90.5689 159.327 90.3036 159.684 89.9054C160.069 89.3454 160.26 88.6742 160.226 87.9953C160.192 87.3164 159.935 86.6675 159.496 86.1488C159.057 85.63 158.459 85.2702 157.795 85.1248C157.131 84.9793 156.438 85.0564 155.822 85.3441C152.64 86.5161 151.761 90.171 151.039 93.1079C149.392 99.8001 147.08 106.629 142.269 111.752C137.817 116.491 131.008 119.415 124.52 117.797C123.385 117.514 123.901 115.776 125.031 116.058C131.465 117.662 138.106 114.155 142.093 109.21C144.415 106.206 146.206 102.827 147.388 99.2195C148.031 97.3797 148.569 95.5048 149.047 93.6161C149.436 91.749 149.99 89.9201 150.703 88.151C151.99 85.3058 154.836 82.7495 158.178 83.3527C158.934 83.5301 159.638 83.8818 160.233 84.3797C160.828 84.8775 161.299 85.5078 161.607 86.2201C161.915 86.9323 162.053 87.7068 162.008 88.4817C161.964 89.2565 161.738 90.0102 161.351 90.6824C160.941 91.2553 160.397 91.7178 159.765 92.0284C159.133 92.3389 158.434 92.4878 157.731 92.4617C157.027 92.4357 156.341 92.2355 155.734 91.879C155.127 91.5226 154.618 91.0211 154.252 90.4194C153.557 88.9635 153.152 87.3859 153.06 85.775C152.436 81.2814 152.827 76.7049 154.206 72.3826C155.584 68.0603 157.915 64.1023 161.026 60.8002C161.835 59.9584 163.076 61.2792 162.269 62.1189Z" fill="#CCCCCC"/>
<path d="M129.948 204.108C134.287 205.324 138.852 205.495 143.27 204.607C147.688 203.718 151.832 201.795 155.363 198.996C156.356 198.2 157.58 197.371 157.577 195.962C157.592 195.428 157.424 194.904 157.102 194.477C156.78 194.049 156.323 193.744 155.805 193.61C155.131 193.526 154.447 193.666 153.86 194.009C153.273 194.352 152.815 194.878 152.557 195.507C152.299 196.135 152.254 196.832 152.431 197.488C152.608 198.144 152.995 198.725 153.534 199.139C156.039 201.424 159.689 200.521 162.628 199.811C169.327 198.191 176.454 197.1 183.216 199.013C189.473 200.782 195.204 205.481 196.754 211.985C197.025 213.123 195.245 213.465 194.975 212.333C193.437 205.882 187.266 201.601 181.041 200.339C177.305 199.66 173.481 199.626 169.734 200.237C167.805 200.514 165.893 200.9 163.997 201.345C162.16 201.859 160.281 202.209 158.383 202.391C155.264 202.558 151.685 201.209 150.682 197.964C150.491 197.211 150.479 196.425 150.647 195.667C150.815 194.909 151.158 194.201 151.648 193.6C152.139 192.998 152.763 192.52 153.471 192.203C154.18 191.885 154.952 191.738 155.728 191.773C156.425 191.873 157.086 192.143 157.653 192.561C158.219 192.979 158.673 193.531 158.974 194.168C159.275 194.804 159.413 195.505 159.376 196.208C159.339 196.911 159.128 197.594 158.762 198.196C157.79 199.483 156.576 200.569 155.188 201.392C151.487 204.015 147.244 205.775 142.772 206.541C138.3 207.307 133.714 207.06 129.35 205.819C128.231 205.488 128.832 203.778 129.948 204.108Z" fill="#CCCCCC"/>
<path d="M64.5643 156.054L67.2856 151.497L82.2573 160.439L79.5359 164.995L64.5643 156.054Z" fill="#B3B3B3"/>
</svg>
