<svg width="60" height="60" viewBox="0 0 60 60" fill="none" xmlns="http://www.w3.org/2000/svg">
<g clip-path="url(#clip0_1_5)">
<rect width="60" height="60" rx="8" fill="#065FEF"/>
<rect width="60" height="60" fill="#065FEF"/>
<rect width="60" height="60" fill="url(#paint0_linear_1_5)"/>
<mask id="mask0_1_5" style="mask-type:alpha" maskUnits="userSpaceOnUse" x="0" y="0" width="60" height="60">
<rect width="60" height="60" fill="#065FEF"/>
</mask>
<g mask="url(#mask0_1_5)">
<rect opacity="0.3" x="13.125" y="42.2461" width="33.75" height="17.4609" fill="url(#paint1_linear_1_5)"/>
<path fill-rule="evenodd" clip-rule="evenodd" d="M29.4141 6.26953H30.5859C31.5568 6.26953 32.3438 7.05653 32.3438 8.02734V23.9648H27.6562V8.02734C27.6562 7.05653 28.4432 6.26953 29.4141 6.26953ZM26.4844 23.9648V8.02734C26.4844 6.40932 27.796 5.09766 29.4141 5.09766H30.5859C32.204 5.09766 33.5156 6.40932 33.5156 8.02734V23.9648L36.7969 23.9648C37.7677 23.9648 38.5547 24.7518 38.5547 25.7227V31.1133V32.2852H37.3828H22.6172H21.4453V31.1133V25.7227C21.4453 24.7518 22.2323 23.9648 23.2031 23.9648L26.4844 23.9648ZM33.5156 25.1367H32.3438H27.6562H26.4844L23.2031 25.1367C22.8795 25.1367 22.6172 25.3991 22.6172 25.7227V31.1133H37.3828V25.7227C37.3828 25.3991 37.1205 25.1367 36.7969 25.1367L33.5156 25.1367Z" fill="white"/>
<path fill-rule="evenodd" clip-rule="evenodd" d="M19.0657 47.7575C19.5805 48.2724 19.5805 49.1071 19.0657 49.622C18.5508 50.1368 17.7161 50.1368 17.2012 49.622C16.6864 49.1071 16.6864 48.2724 17.2012 47.7575C17.7161 47.2427 18.5508 47.2427 19.0657 47.7575ZM22.4378 49.5722C22.715 49.7392 22.7126 50.1182 22.4838 50.347L19.915 52.9158C19.6862 53.1446 19.3072 53.1471 19.1402 52.8699C18.5839 51.9464 18.7041 50.7294 19.5007 49.9327C20.2974 49.1361 21.5144 49.0159 22.4378 49.5722ZM27.8594 53.7028L28.161 53.1095L28.5123 53.2884L28.2074 53.8851L28.8803 53.9878L28.8173 54.3822L28.1411 54.2762L28.2439 54.9358L27.8527 54.9888L27.7632 54.3292L27.1534 54.6275L26.9744 54.2762L27.5809 53.9812L27.1103 53.5105L27.3887 53.2321L27.8594 53.7028ZM29.5594 52.0028L29.861 51.4094L30.2123 51.5884L29.9074 52.1851L30.5803 52.2878L30.5173 52.6822L29.8411 52.5762L29.9439 53.2358L29.5527 53.2888L29.4633 52.6292L28.8534 52.9275L28.6744 52.5762L29.2809 52.2812L28.8103 51.8105L29.0887 51.5321L29.5594 52.0028ZM31.561 49.7094L31.2594 50.3027L30.7887 49.8321L30.5103 50.1105L30.981 50.5812L30.3744 50.8762L30.5534 51.2275L31.1633 50.9292L31.2528 51.5888L31.6439 51.5358L31.5411 50.8762L32.2173 50.9822L32.2803 50.5878L31.6074 50.485L31.9124 49.8884L31.561 49.7094ZM41.8007 55.3905C41.8786 55.4295 41.9703 55.3728 41.9703 55.2857L41.9703 52.3149L41.9703 51.3194L41.9703 51.3167L41.9703 48.0093C41.9703 47.9121 41.8589 47.8572 41.7818 47.9163L39.25 49.8573C39.1276 49.9511 39.1276 50.1355 39.25 50.2293L41.0347 51.5976L38.044 53.0929C37.8712 53.1793 37.8712 53.4258 38.044 53.5122L41.8007 55.3905ZM37.2424 49.3136C37.7357 49.3136 38.1356 49.7135 38.1356 50.2068C38.1356 50.7001 37.7357 51.1001 37.2424 51.1001C36.7491 51.1001 36.3492 50.7001 36.3492 50.2068C36.3492 49.7135 36.7491 49.3136 37.2424 49.3136ZM29.0486 59.7018C28.7361 59.3893 28.8689 58.8566 29.2914 58.7272L34.9443 56.9968C35.3934 56.8593 35.8136 57.2795 35.6761 57.7285L33.9456 63.3814C33.8163 63.804 33.2835 63.9367 32.9711 63.6243L29.0486 59.7018Z" fill="white"/>
<path d="M15.1132 32.2796C15.3258 31.5207 16.0176 30.9961 16.8058 30.9961H43.1942C43.9824 30.9961 44.6742 31.5207 44.8868 32.2796L46.8098 39.1423C46.8531 39.2967 46.875 39.4563 46.875 39.6166V42.4805C46.875 43.4513 46.088 44.2383 45.1172 44.2383H14.8828C13.912 44.2383 13.125 43.4513 13.125 42.4805V39.6166C13.125 39.4563 13.1469 39.2967 13.1902 39.1423L15.1132 32.2796Z" fill="url(#paint2_linear_1_5)"/>
</g>
</g>
<defs>
<linearGradient id="paint0_linear_1_5" x1="30" y1="0" x2="30" y2="60" gradientUnits="userSpaceOnUse">
<stop stop-color="#065FEF"/>
<stop offset="1" stop-color="#065FEF" stop-opacity="0"/>
</linearGradient>
<linearGradient id="paint1_linear_1_5" x1="27.6653" y1="42.2461" x2="27.632" y2="57.2538" gradientUnits="userSpaceOnUse">
<stop stop-color="white"/>
<stop offset="0.75873" stop-color="#BAE0F5" stop-opacity="0"/>
</linearGradient>
<linearGradient id="paint2_linear_1_5" x1="30" y1="30.9961" x2="30" y2="44.2383" gradientUnits="userSpaceOnUse">
<stop stop-color="#F7FAFE"/>
<stop offset="1" stop-color="#F1F6FE"/>
</linearGradient>
<clipPath id="clip0_1_5">
<rect width="60" height="60" rx="8" fill="white"/>
</clipPath>
</defs>
</svg>
